# xmcd CD database file
# Copyright (C) 1996 Ti Kan
#
# Track frame offsets:
#	150
#	13013
#	24480
#	37965
#	52008
#	63163
#	76090
#	91953
#	103943
#	114505
#	128793
#	140180
#	153418
#	168483
#	182090
#
# Disc length: 2591 seconds
#
# Revision: 1
# Processed by: cddbd v1.4b41PL1 Copyright (c) Steve Scherf et al.
# Submitted via: EasyCD 2.21 - (C) 1996 Greg Leichner
#
DISCID=c30a1d0f
DTITLE=Muddy Waters - Greatest Hits
DYEAR=1900
DGENRE=
TTITLE0=Mean Mistreater
TTITLE1=I Can't Call Her Sugar
TTITLE2=Can't Lose What You Ain't Never Had
TTITLE3=Close To You
TTITLE4=Diamonds At Your Feet
TTITLE5=The Stuff You Gotta Watch
TTITLE6=Iodine In My Coffee
TTITLE7=You Gonna Miss Me
TTITLE8=Mean Red Spider
TTITLE9=You Gonna Need My Help
TTITLE10=She's All Right
TTITLE11=So Glad I'm Livin'
TTITLE12=One More Mile
TTITLE13=Sad Letter
TTITLE14=I Can't Be Satisfied
EXTD=
EXTT0=
EXTT1=
EXTT2=
EXTT3=
EXTT4=
EXTT5=
EXTT6=
EXTT7=
EXTT8=
EXTT9=
EXTT10=
EXTT11=
EXTT12=
EXTT13=
EXTT14=
PLAYORDER=
